# xmcd
#
# Track frame offsets:
#	150
#	19740
#	38522
#	61950
#	78207
#	92042
#	113932
#	127087
#	143835
#	161800
#	178517
#	194272
#	215415
#	235485
#	253420
#	271692
#
# Disc length: 3907
#
# Revision: 3
# Processed by: cddbd v1.5.1PL0 Copyright (c) Steve Scherf et al.
# Submitted via: ExactAudioCopy v0.90b4
# Normalized: r2:TDELIM( - )
#
DISCID=e00f4110
DTITLE=Various Artist - Mr.Loverman ( RTL )
DYEAR=1900
DGENRE=
TTITLE0=Lenny Kravitz - Stand by me Woman
TTITLE1=Bryan Ferry - More than this
TTITLE2=Dan Lucas - Close your eyes and say goodby
TTITLE3=Shaka Zulu - Mr.Loverman
TTITLE4=Paul Young - Love Hurts
TTITLE5=Bobby Brown - That's the Way love is
TTITLE6=John Cougar - Oh Pretty Woman
TTITLE7=Richard Grieco - Voice with no Name
TTITLE8=Andrew Strong - Same old me
TTITLE9=Chesney Hawkes - The One and Only
TTITLE10=Sidney Youngblood - If only I could
TTITLE11=John Parr - Dirty Lovin
TTITLE12=Rod Stewart - Little miss Understood
TTITLE13=Harry Kirsch - Looking for My Baby
TTITLE14=Hot Chocolate - You sexy Thing
TTITLE15=Kool and the Gang - Cherish
EXTD=
EXTT0=
EXTT1=
EXTT2=
EXTT3=
EXTT4=
EXTT5=
EXTT6=
EXTT7=
EXTT8=
EXTT9=
EXTT10=
EXTT11=
EXTT12=
EXTT13=
EXTT14=
EXTT15=
PLAYORDER=
